<svg width="24" height="25" viewBox="0 0 24 25" fill="none" xmlns="http://www.w3.org/2000/svg">
<mask id="mask0_29_1731" style="mask-type:alpha" maskUnits="userSpaceOnUse" x="0" y="0" width="24" height="25">
<rect y="0.539062" width="24" height="24" fill="#D9D9D9"/>
</mask>
<g mask="url(#mask0_29_1731)">
<path d="M11 9.53906V6.53906H8V4.53906H11V1.53906H13V4.53906H16V6.53906H13V9.53906H11ZM7 22.5391C6.45 22.5391 5.97917 22.3432 5.5875 21.9516C5.19583 21.5599 5 21.0891 5 20.5391C5 19.9891 5.19583 19.5182 5.5875 19.1266C5.97917 18.7349 6.45 18.5391 7 18.5391C7.55 18.5391 8.02083 18.7349 8.4125 19.1266C8.80417 19.5182 9 19.9891 9 20.5391C9 21.0891 8.80417 21.5599 8.4125 21.9516C8.02083 22.3432 7.55 22.5391 7 22.5391ZM17 22.5391C16.45 22.5391 15.9792 22.3432 15.5875 21.9516C15.1958 21.5599 15 21.0891 15 20.5391C15 19.9891 15.1958 19.5182 15.5875 19.1266C15.9792 18.7349 16.45 18.5391 17 18.5391C17.55 18.5391 18.0208 18.7349 18.4125 19.1266C18.8042 19.5182 19 19.9891 19 20.5391C19 21.0891 18.8042 21.5599 18.4125 21.9516C18.0208 22.3432 17.55 22.5391 17 22.5391ZM1 4.53906V2.53906H4.275L8.525 11.5391H15.525L19.425 4.53906H21.7L17.3 12.4891C17.1167 12.8224 16.8708 13.0807 16.5625 13.2641C16.2542 13.4474 15.9167 13.5391 15.55 13.5391H8.1L7 15.5391H19V17.5391H7C6.25 17.5391 5.67917 17.2141 5.2875 16.5641C4.89583 15.9141 4.88333 15.2557 5.25 14.5891L6.6 12.1391L3 4.53906H1Z" fill="white"/>
</g>
</svg>
